<svg xmlns="http://www.w3.org/2000/svg" direction="ltr" width="602.2651515151516" height="602.2651515151516"
    viewBox="129.57215456649465 -226.62690059584793 602.2651515151516 602.2651515151516" stroke-linecap="round"
    stroke-linejoin="round" data-color-mode="light" class="tl-container tl-theme__force-sRGB tl-theme__light"
    style="background-color: rgb(249, 250, 251);">
    <defs />
    <g transform="matrix(1, 0, 0, 1, 161.5722, -194.6269)" opacity="1">
        <path fill="#e03131" d="M 0 0 L 538.2652 0 L 538.2652 538.2652 L 0 538.2652 Z" />
        <path stroke-width="3.5" d="M 0 0 L 538.2652 0 L 538.2652 538.2652 L 0 538.2652 Z" fill="none"
            stroke="#e03131" />
    </g>
    <g transform="matrix(1, 0, 0, 1, 220.0621, -115.5865)" opacity="1">
        <path fill="#fcfffe"
            d="M 0 48.2146 C 0 21.5864 21.5864 0 48.2146 0 C 74.8429 0 96.4293 21.5864 96.4293 48.2146 C 96.4293 74.8429 74.8429 96.4293 48.2146 96.4293 C 21.5864 96.4293 0 74.8429 0 48.2146" />
        <path stroke-width="3.5"
            d="M 0 48.2146 C 0 21.5864 21.5864 0 48.2146 0 C 74.8429 0 96.4293 21.5864 96.4293 48.2146 C 96.4293 74.8429 74.8429 96.4293 48.2146 96.4293 C 21.5864 96.4293 0 74.8429 0 48.2146"
            fill="none" stroke="#1d1d1d" />
    </g>
    <g transform="matrix(1, 0, 0, 1, 220.0621, 178.4438)" opacity="1">
        <path fill="#fcfffe"
            d="M 0 48.2146 C 0 21.5864 21.5864 0 48.2146 0 C 74.8429 0 96.4293 21.5864 96.4293 48.2146 C 96.4293 74.8429 74.8429 96.4293 48.2146 96.4293 C 21.5864 96.4293 0 74.8429 0 48.2146" />
        <path stroke-width="3.5"
            d="M 0 48.2146 C 0 21.5864 21.5864 0 48.2146 0 C 74.8429 0 96.4293 21.5864 96.4293 48.2146 C 96.4293 74.8429 74.8429 96.4293 48.2146 96.4293 C 21.5864 96.4293 0 74.8429 0 48.2146"
            fill="none" stroke="#1d1d1d" />
    </g>
    <g transform="matrix(1, 0, 0, 1, 537.0141, 178.4438)" opacity="1">
        <path fill="#fcfffe"
            d="M 0 48.2146 C 0 21.5864 21.5864 0 48.2146 0 C 74.8429 0 96.4293 21.5864 96.4293 48.2146 C 96.4293 74.8429 74.8429 96.4293 48.2146 96.4293 C 21.5864 96.4293 0 74.8429 0 48.2146" />
        <path stroke-width="3.5"
            d="M 0 48.2146 C 0 21.5864 21.5864 0 48.2146 0 C 74.8429 0 96.4293 21.5864 96.4293 48.2146 C 96.4293 74.8429 74.8429 96.4293 48.2146 96.4293 C 21.5864 96.4293 0 74.8429 0 48.2146"
            fill="none" stroke="#1d1d1d" />
    </g>
    <g transform="matrix(1, 0, 0, 1, 530.6908, -113.2153)" opacity="1">
        <path fill="#fcfffe"
            d="M 0 48.2146 C 0 21.5864 21.5864 0 48.2146 0 C 74.8429 0 96.4293 21.5864 96.4293 48.2146 C 96.4293 74.8429 74.8429 96.4293 48.2146 96.4293 C 21.5864 96.4293 0 74.8429 0 48.2146" />
        <path stroke-width="3.5"
            d="M 0 48.2146 C 0 21.5864 21.5864 0 48.2146 0 C 74.8429 0 96.4293 21.5864 96.4293 48.2146 C 96.4293 74.8429 74.8429 96.4293 48.2146 96.4293 C 21.5864 96.4293 0 74.8429 0 48.2146"
            fill="none" stroke="#1d1d1d" />
    </g>
</svg>